HIERARCHY
ROOT reference
{
  OFFSET 0 0 0
  CHANNELS 6 Xposition Yposition Zposition Zrotation Xrotation Yrotation
  JOINT Hips
  {
    OFFSET -18.8474 97.52 70.7712
    CHANNELS 6 Xposition Yposition Zposition Zrotation Xrotation Yrotation
    JOINT Spine
    {
      OFFSET 0 7.86299 0
      CHANNELS 6 Xposition Yposition Zposition Zrotation Xrotation Yrotation
      JOINT Spine1
      {
        OFFSET 0 22.6654 0
        CHANNELS 6 Xposition Yposition Zposition Zrotation Xrotation Yrotation
        JOINT Neck
        {
          OFFSET 0 22.5723 2.05203
          CHANNELS 6 Xposition Yposition Zposition Zrotation Xrotation Yrotation
          JOINT Head
          {
            OFFSET 0 13.4246 -1.9178
            CHANNELS 6 Xposition Yposition Zposition Zrotation Xrotation Yrotation
            End Site
            {
              OFFSET 0 23.9725 0
            }
          }
        }
        JOINT LeftShoulder
        {
          OFFSET 3.7941 20.1358 -0.319195
          CHANNELS 6 Xposition Yposition Zposition Zrotation Xrotation Yrotation
          JOINT LeftArm
          {
            OFFSET 12.7665 0 0
            CHANNELS 6 Xposition Yposition Zposition Zrotation Xrotation Yrotation
            JOINT LeftForeArm
            {
              OFFSET 28.396 0 0
              CHANNELS 6 Xposition Yposition Zposition Zrotation Xrotation Yrotation
              JOINT LeftHand
              {
                OFFSET 28.7929 0 0
                CHANNELS 6 Xposition Yposition Zposition Zrotation Xrotation Yrotation
                End Site
                {
                  OFFSET 14.3835 0 0
                }
              }
            }
          }
        }
        JOINT RightShoulder
        {
          OFFSET -3.85764 20.1358 -0.319195
          CHANNELS 6 Xposition Yposition Zposition Zrotation Xrotation Yrotation
          JOINT RightArm
          {
            OFFSET -12.7665 0 0
            CHANNELS 6 Xposition Yposition Zposition Zrotation Xrotation Yrotation
            JOINT RightForeArm
            {
              OFFSET -28.396 0 0
              CHANNELS 6 Xposition Yposition Zposition Zrotation Xrotation Yrotation
              JOINT RightHand
              {
                OFFSET -28.7929 0 0
                CHANNELS 6 Xposition Yposition Zposition Zrotation Xrotation Yrotation
                End Site
                {
                  OFFSET -14.3835 0 0
                }
              }
            }
          }
        }
      }
    }
    JOINT LeftUpLeg
    {
      OFFSET 9.58901 0 0
      CHANNELS 6 Xposition Yposition Zposition Zrotation Xrotation Yrotation
      JOINT LeftLeg
      {
        OFFSET 0 -41.7092 0
        CHANNELS 6 Xposition Yposition Zposition Zrotation Xrotation Yrotation
        JOINT LeftFoot
        {
          OFFSET 0 -41.5308 0
          CHANNELS 6 Xposition Yposition Zposition Zrotation Xrotation Yrotation
          JOINT LeftToeBase
          {
            OFFSET 0 -6.23286 14.3835
            CHANNELS 6 Xposition Yposition Zposition Zrotation Xrotation Yrotation
            End Site
            {
              OFFSET 0 0 3.8356
            }
          }
        }
      }
    }
    JOINT RightUpLeg
    {
      OFFSET -9.58901 0 0
      CHANNELS 6 Xposition Yposition Zposition Zrotation Xrotation Yrotation
      JOINT RightLeg
      {
        OFFSET 0 -41.7092 0
        CHANNELS 6 Xposition Yposition Zposition Zrotation Xrotation Yrotation
        JOINT RightFoot
        {
          OFFSET 0 -41.5308 0
          CHANNELS 6 Xposition Yposition Zposition Zrotation Xrotation Yrotation
          JOINT RightToeBase
          {
            OFFSET 0 -6.23286 14.3835
            CHANNELS 6 Xposition Yposition Zposition Zrotation Xrotation Yrotation
            End Site
            {
              OFFSET 0 0 3.8356
            }
          }
        }
      }
    }
  }
}
MOTION
Frames:	6
Frame Time:	0.004
0 0 0 0 0 -0 -29.8027 85.9158 -199.912 0.295386 -0.812938 3.71449 0 7.86299 -2.84217e-014 1.34498 -7.37942 0.000730283 1.77636e-015 22.6654 2.84217e-014 -0.144875 0.190177 -0.0913193 1.77636e-015 22.5723 2.05203 -0.571343 19.3834 -0.468859 0 13.4246 -1.9178 2.3377 -0.943363 -0.154006 3.7941 20.1358 -0.319195 8.31722 3.53525 1.61897 12.7665 0 0 -11.5379 1.26788 -6.61618 28.396 0 0 0.670615 3.23128 -0.704795 28.7929 2.84217e-014 0 2.06938 3.22433 -0.616602 -3.85764 20.1358 -0.319195 -8.68082 5.18924 9.35867 -12.7665 0 2.84217e-014 9.17355 3.77993 0.249891 -28.396 0 0 -1.50896 -0.696439 2.2467 -28.7929 0 0 3.13066 -0.610719 2.0491 9.58901 1.42109e-014 0 1.44975 4.54889 0.419654 1.77636e-015 -41.7092 0 -3.60576 0.153204 -6.36391 -3.55271e-015 -41.5308 2.84217e-014 3.51692 -6.9828 23.9428 -7.10543e-015 -6.23286 14.3835 2.20695e-032 -3.97569e-016 3.18055e-015 -9.58901 1.42109e-014 -2.84217e-014 -2.97476 2.5239 2.23706 0 -41.7092 2.84217e-014 3.71723 3.86837 -3.67738 0 -41.5308 0 -0.14923 -8.96997 -14.5694 1.42109e-014 -6.23286 14.3835 2.98177e-016 3.97569e-016 -1.59028e-015 
0 0 0 0 0 -0 -29.8027 85.9158 -199.917 0.295386 -0.812938 3.71449 0 7.86299 -2.84217e-014 1.34498 -7.37502 0.000730276 0 22.6654 0 -0.144685 0.190177 -0.0913193 1.77636e-015 22.5723 2.05203 -0.571472 19.3685 -0.468816 0 13.4246 -1.9178 2.32272 -0.939517 -0.154006 3.7941 20.1358 -0.319195 8.31673 3.55267 1.619 12.7665 2.84217e-014 0 -11.5401 1.24446 -6.63723 28.396 0 0 0.665054 3.23996 -0.704801 28.7929 -2.84217e-014 -2.84217e-014 2.10503 3.2327 -0.619078 -3.85764 20.1358 -0.319195 -8.68082 5.18924 9.35867 -12.7665 -2.84217e-014 0 9.17361 3.76547 0.249887 -28.396 2.84217e-014 0 -1.50972 -0.678025 2.24346 -28.7929 0 0 3.14114 -0.592108 2.04909 9.58901 1.42109e-014 0 1.44975 4.54889 0.419654 1.77636e-015 -41.7092 0 -3.60573 0.153201 -6.37383 3.55271e-015 -41.5308 0 3.48399 -6.99263 23.9434 0 -6.23286 14.3835 2.20695e-032 3.97569e-016 -3.18055e-015 -9.58901 1.42109e-014 -2.84217e-014 -2.97465 2.521 2.23706 7.10543e-015 -41.7092 2.84217e-014 3.71723 3.86837 -3.67738 0 -41.5308 -2.84217e-014 -0.153796 -8.9688 -14.5987 0 -6.23286 14.3835 0 3.97569e-016 -0 
0 0 0 0 0 -0 -29.7991 85.9158 -199.923 0.295357 -0.81294 3.71241 0 7.86299 0 1.34498 -7.36932 0.000730267 1.77636e-015 22.6654 0 -0.135314 0.180002 -0.0913192 3.55271e-015 22.5723 2.05203 -0.571967 19.3858 -0.466924 0 13.4246 -1.9178 2.31701 -0.972528 -0.152649 3.7941 20.1358 -0.319195 8.31676 3.55168 1.619 12.7665 -2.84217e-014 0 -11.5398 1.24779 -6.63328 28.396 0 0 0.6475 3.30111 -0.71539 28.7929 0 2.84217e-014 2.13527 3.29441 -0.57831 -3.85764 20.1358 -0.319195 -8.68178 5.18909 9.36931 -12.7665 0 0 9.17356 3.7765 0.24989 -28.396 0 2.84217e-014 -1.50988 -0.676253 2.23569 -28.7929 0 0 3.12335 -0.590838 2.04909 9.58901 0 2.84217e-014 1.44975 4.54889 0.419654 3.55271e-015 -41.7092 2.84217e-014 -3.60572 0.1532 -6.37969 0 -41.5308 0 3.46504 -6.99319 23.9428 7.10543e-015 -6.23286 14.3835 -1.98785e-016 0 -0 -9.58901 0 0 -2.97363 2.51192 2.22192 0 -41.7092 0 3.71723 3.86837 -3.67738 0 -41.5308 2.84217e-014 -0.153863 -8.96987 -14.5719 0 -6.23286 14.3835 1.98785e-016 0 1.59028e-015 
0 0 0 0 0 -0 -29.7965 85.9158 -199.928 0.288595 -0.812947 3.70473 -3.55271e-015 7.86299 0 1.34498 -7.35754 0.000730247 0 22.6654 0 -0.125267 0.179313 -0.0913192 -1.77636e-015 22.5723 2.05203 -0.576241 19.3807 -0.454162 3.55271e-015 13.4246 -1.9178 2.33395 -0.979621 -0.136982 3.7941 20.1358 -0.319195 8.31597 3.5797 1.61905 12.7665 -2.84217e-014 2.84217e-014 -11.542 1.22651 -6.64999 28.396 0 2.84217e-014 0.651855 3.29073 -0.722908 28.7929 0 0 2.15291 3.28421 -0.566425 -3.85764 20.1358 -0.319195 -8.68365 5.18904 9.37207 -12.7665 0 -2.84217e-014 9.17345 3.7411 0.253987 -28.396 -2.84217e-014 -2.84217e-014 -1.51131 -0.642696 2.22523 -28.7929 -2.84217e-014 2.84217e-014 3.12168 -0.557433 2.05052 9.58901 -1.42109e-014 -2.84217e-014 1.44972 4.55282 0.419656 0 -41.7092 0 -3.60577 0.153205 -6.36153 0 -41.5308 -2.84217e-014 3.49251 -6.98575 23.9303 0 -6.23286 14.3835 1.98785e-016 7.95139e-016 -3.18055e-015 -9.58901 0 0 -2.97423 2.51537 2.2326 3.55271e-015 -41.7092 2.84217e-014 3.71723 3.86837 -3.67738 7.10543e-015 -41.5308 0 -0.161198 -8.96122 -14.5734 1.42109e-014 -6.23286 14.3835 -1.98785e-016 1.19271e-015 1.59028e-015 
0 0 0 0 0 -0 -29.7942 85.9158 -199.933 0.285571 -0.812952 3.69953 3.55271e-015 7.86299 -2.84217e-014 1.34498 -7.36213 0.000730255 0 22.6654 0 -0.125292 0.1827 -0.0913192 5.32907e-015 22.5723 2.05203 -0.55845 19.392 -0.454716 0 13.4246 -1.9178 2.31437 -1.01471 -0.139369 3.7941 20.1358 -0.319195 8.31564 3.59121 1.61907 12.7665 2.84217e-014 0 -11.5413 1.23173 -6.65749 28.396 -2.84217e-014 -2.84217e-014 0.675753 3.25943 -0.711987 28.7929 0 2.84217e-014 2.08527 3.2521 -0.633969 -3.85764 20.1358 -0.319195 -8.67096 5.19631 9.37491 -12.7665 0 2.84217e-014 9.17304 3.73842 0.260344 -28.396 2.84217e-014 0 -1.51419 -0.647155 2.22174 -28.7929 0 0 3.0829 -0.563225 2.03117 9.58901 0 0 1.44978 4.54361 0.419651 -3.55271e-015 -41.7092 2.84217e-014 -3.60593 0.155652 -6.38724 3.55271e-015 -41.5308 2.84217e-014 3.50743 -6.97186 23.9502 0 -6.23286 14.3835 -1.98785e-016 -7.95139e-016 3.18055e-015 -9.58901 1.42109e-014 0 -2.97367 2.50297 2.23075 3.55271e-015 -41.7092 0 3.71705 3.86833 -3.68717 0 -41.5308 -2.84217e-014 -0.154577 -8.95212 -14.5476 0 -6.23286 14.3835 9.93923e-017 7.95139e-016 1.59028e-015 
0 0 0 0 0 -0 -29.7921 85.9158 -199.939 0.283386 -0.812951 3.70034 0 7.86299 0 1.34498 -7.35293 0.00073024 1.77636e-015 22.6654 0 -0.127294 0.17193 -0.0913192 -1.77636e-015 22.5723 2.05203 -0.572944 19.3853 -0.444675 0 13.4246 -1.9178 2.32613 -1.00657 -0.127591 3.7941 20.1358 -0.319195 8.31537 3.60063 1.61908 12.7665 2.84217e-014 0 -11.5321 1.2294 -6.66473 28.396 0 -2.84217e-014 0.65831 3.31552 -0.733496 28.7929 -2.84217e-014 2.84217e-014 2.14415 3.30907 -0.570762 -3.85764 20.1358 -0.319195 -8.67535 5.20387 9.37792 -12.7665 0 0 9.17271 3.73355 0.265847 -28.396 0 0 -1.52637 -0.637875 2.21415 -28.7929 -2.84217e-014 0 3.13617 -0.552229 2.05102 9.58901 0 0 1.45047 4.53004 0.419643 0 -41.7092 0 -3.60719 0.173089 -6.3706 0 -41.5308 2.84217e-014 3.51806 -6.99127 23.9531 7.10543e-015 -6.23286 14.3835 -1.98785e-016 0 -3.18055e-015 -9.58901 1.42109e-014 -2.84217e-014 -2.97325 2.49684 2.22659 -3.55271e-015 -41.7092 0 3.71553 3.86838 -3.67661 0 -41.5308 0 -0.16327 -8.95616 -14.572 0 -6.23286 14.3835 0 3.97569e-016 -0 
